# xmcd
#
# Track frame offsets: 
#        150
#        3057
#        17412
#        41179
#        73527
#        94004
#        103531
#        133638
#        154720
#        178288
#        197668
#
# Disc length: 2751 seconds
#
# Revision: 1
# Processed by: cddbd v1.5.2PL0 Copyright (c) Steve Scherf et al.
# Submitted via: ExactAudioCopy v0.99pb4
#
DISCID=850abd0b
DTITLE=Misanthropic - Soulreaver
DYEAR=2003
DGENRE=Death Metal
TTITLE0=Intro
TTITLE1=Restless Life
TTITLE2=Fly
TTITLE3=Admission Free
TTITLE4=The Play
TTITLE5=Zwischenspiel
TTITLE6=The Lie
TTITLE7=Into The Night
TTITLE8=Living You
TTITLE9=Nervous Breakdown
TTITLE10=Outro
EXTD=
EXTT0=
EXTT1=
EXTT2=
EXTT3=
EXTT4=
EXTT5=
EXTT6=
EXTT7=
EXTT8=
EXTT9=
EXTT10=
PLAYORDER=
